<svg clip-rule="evenodd" fill-rule="evenodd" stroke-linejoin="round" stroke-miterlimit="2" viewBox="0 0 96 96" xmlns="http://www.w3.org/2000/svg"><path d="m24.045 23.996 65.443-.396h.012c2.599 0 4.611 2.589 3.812 5.188-.002.006-.004.013-.006.019l-11.4 35.8c-.265.83-1.035 1.393-1.906 1.393h-44c-.849 0-1.605-.536-1.887-1.336 0 0-18.529-52.664-18.529-52.664h-12.084c-1.104 0-2-.896-2-2s.896-2 2-2h13.5c.849 0 1.605.536 1.887 1.336zm1.404 3.992 11.967 34.012h41.122s10.951-34.39 10.95-34.388c.002-.007.018-.012.013-.012z" fill="#314f78"/><path d="m51 75h15" fill="none"/><g fill="#314f78"><path d="m51 77c-1.104 0-2-.896-2-2s.896-2 2-2h15c1.104 0 2 .896 2 2s-.896 2-2 2z"/><path d="m37.5 71.5c4.415 0 8 3.585 8 8s-3.585 8-8 8-8-3.585-8-8 3.585-8 8-8zm0 4c-2.208 0-4 1.792-4 4s1.792 4 4 4 4-1.792 4-4-1.792-4-4-4z"/><path d="m79.5 71.5c4.415 0 8 3.585 8 8s-3.585 8-8 8-8-3.585-8-8 3.585-8 8-8zm0 4c-2.208 0-4 1.792-4 4s1.792 4 4 4 4-1.792 4-4-1.792-4-4-4z"/></g></svg>